<?xml version="1.0" standalone="no"?>
<!DOCTYPE svg PUBLIC "-//W3C//DTD SVG 20010904//EN"
 "http://www.w3.org/TR/2001/REC-SVG-20010904/DTD/svg10.dtd">
<svg version="1.0" xmlns="http://www.w3.org/2000/svg"
 width="1500.000000pt" height="1500.000000pt" viewBox="0 0 1500.000000 1500.000000"
 preserveAspectRatio="xMidYMid meet">
<metadata>
Created by potrace 1.14, written by Peter Selinger 2001-2017
</metadata>
<g transform="translate(0.000000,1500.000000) scale(0.100000,-0.100000)"
fill="#000000" stroke="none">
<path d="M4504 8911 c0 -1202 -3 -2213 -7 -2246 -26 -232 -141 -361 -332 -373
-226 -14 -389 147 -494 488 -11 36 -23 76 -25 90 -3 14 -7 36 -10 50 -12 51
-25 137 -32 195 -7 67 -12 96 -16 101 -2 1 -75 -19 -163 -46 -88 -26 -313 -94
-500 -149 -187 -56 -376 -113 -420 -126 -44 -13 -134 -41 -200 -60 -66 -20
-127 -38 -135 -40 -8 -2 -143 -43 -300 -90 -156 -47 -286 -85 -288 -85 -11 0
22 -201 58 -355 132 -568 435 -1014 895 -1318 290 -192 700 -342 1082 -397 37
-5 84 -12 103 -15 19 -2 64 -7 100 -10 36 -2 103 -8 150 -11 158 -13 536 -7
665 10 17 2 61 7 98 11 37 3 76 8 87 10 10 2 40 7 67 11 54 8 46 6 173 33 97
20 226 56 331 91 524 177 928 505 1167 950 72 134 160 369 188 505 16 78 45
254 53 325 5 50 10 1019 10 2361 l1 2276 -1153 0 -1152 0 -1 -2186z"/>
<path d="M7211 7903 l0 -3193 1154 0 1154 0 0 865 0 865 108 138 c59 75 118
151 132 168 15 17 60 74 101 127 l74 96 49 -127 c27 -70 53 -136 58 -147 7
-16 256 -661 468 -1215 20 -52 95 -247 166 -432 l130 -338 1343 0 c738 0 1342
2 1342 4 0 3 -59 124 -390 801 -59 121 -156 319 -215 440 -59 121 -164 335
-233 475 -68 140 -164 336 -212 435 -87 179 -266 545 -468 955 -58 118 -106
217 -107 220 0 3 -74 153 -163 334 -89 180 -162 333 -162 339 0 10 36 61 62
89 7 7 65 76 128 153 63 77 117 142 120 145 3 3 32 39 65 80 33 41 62 77 65
80 3 3 50 59 104 125 54 66 105 129 114 140 10 11 37 45 62 75 25 30 47 57 50
60 3 3 50 59 104 125 54 66 105 129 114 140 10 11 80 96 156 189 76 93 147
178 156 190 16 19 178 215 265 321 18 22 69 85 115 140 45 55 108 131 139 169
31 38 73 89 94 113 20 24 37 46 37 47 0 2 -604 3 -1343 3 l-1343 0 -71 -106
c-80 -119 -337 -498 -353 -521 -14 -20 -326 -480 -444 -655 -408 -604 -400
-594 -411 -583 -4 3 -6 424 -6 935 l0 930 -1154 0 -1154 0 0 -3194z"/>
</g>
</svg>
